<svg id="Layer_1" data-name="Layer 1" xmlns="http://www.w3.org/2000/svg" viewBox="0 0 400 450"><defs><style>.cls-1{fill:#fff;}</style></defs><path class="cls-1" d="M151.76,167.17H128.11a5.23,5.23,0,0,0-4.44,8L153,222.24a5.23,5.23,0,0,1,0,5.52l-29.28,47.08a5.23,5.23,0,0,0,4.44,8h23.65a5.21,5.21,0,0,0,4.44-2.47l32.72-52.6a5.23,5.23,0,0,0,0-5.52l-32.72-52.6A5.21,5.21,0,0,0,151.76,167.17Z"/><path class="cls-1" d="M201.64,167.17H178a5.23,5.23,0,0,0-4.44,8l29.28,47.08a5.19,5.19,0,0,1,0,5.52l-29.28,47.08a5.23,5.23,0,0,0,4.44,8h23.66a5.23,5.23,0,0,0,4.44-2.47l32.71-52.6a5.23,5.23,0,0,0,0-5.52l-32.71-52.6A5.23,5.23,0,0,0,201.64,167.17Z"/></svg>