<svg xmlns="http://www.w3.org/2000/svg" viewBox="0 0 200 200"><defs><style>.cls-1{fill:none;stroke-linecap:round;stroke-width:8px;}.cls-1,.cls-2{stroke:#a1a1a1;stroke-miterlimit:10;}.cls-2,.cls-3{fill:#a1a1a1;}.cls-2{stroke-width:4px;}</style></defs><title>Bucket</title><g id="Bucket"><path class="cls-1" d="M150,112.71l-.25.26-33.21,33.21a11.41,11.41,0,0,1-16.13,0L57.21,103a11.4,11.4,0,0,1,0-16.13L90.42,53.64a11.4,11.4,0,0,1,16.13,0l43.2,43.19.16.17.09.09A11.41,11.41,0,0,1,150,112.71Z"/><path class="cls-2" d="M62.7,117.53c0,4.67-3.78,9.47-8.45,9.47s-8.46-4.8-8.46-9.47S54.25,101,54.25,101,62.7,112.86,62.7,117.53Z"/><path class="cls-3" d="M150,97v15.71l-.25.26-33.21,33.21a11.41,11.41,0,0,1-16.13,0L57.21,103a11.4,11.4,0,0,1-3.15-6Z"/></g></svg>