<svg xmlns="http://www.w3.org/2000/svg" viewBox="0 0 200 200"><defs><style>.cls-1{fill:#eaeaea;}.cls-2,.cls-3{fill:#a1a1a1;}.cls-2{stroke:#a1a1a1;stroke-linecap:round;stroke-miterlimit:10;stroke-width:8px;}</style></defs><title>Rotate</title><g id="Picker"><polygon class="cls-1" points="88.42 129.52 55.58 129.52 49.39 150.94 77.26 142.16 88.42 129.52"/><rect class="cls-2" x="103.9" y="69.36" width="37" height="16.32" rx="4.14" transform="translate(154.14 218.9) rotate(-135)"/><path class="cls-3" d="M129.08,87.94l-17-17a4.65,4.65,0,0,0-6.54.36L58.35,118.46A21.46,21.46,0,0,0,53,127.19l-7.23,24.2a.42.42,0,0,1-.09.14l-6.12,6.12a5.52,5.52,0,0,0-1.25,1.89h0a1.63,1.63,0,0,0,2.17,2.17h0a5.52,5.52,0,0,0,1.89-1.25l6.12-6.12a.42.42,0,0,1,.14-.09L72.81,147a21.46,21.46,0,0,0,8.73-5.37l47.18-47.17A4.65,4.65,0,0,0,129.08,87.94Zm-51.55,49.7a14.41,14.41,0,0,1-5.86,3.63l-15.91,4.82a1.45,1.45,0,0,1-1.85-1.85l4.82-15.91a14.52,14.52,0,0,1,3.63-5.86l44.93-44.93a1.63,1.63,0,0,1,2.29-.12l13,13a1.63,1.63,0,0,1-.12,2.29Z"/><path class="cls-3" d="M158.56,57.34,128,85,115,72l27.65-30.58a11.24,11.24,0,1,1,15.9,15.9Z"/></g></svg>