<svg id="Eraser" xmlns="http://www.w3.org/2000/svg" viewBox="0 0 200 200"><defs><style>.cls-1,.cls-3{fill:none;stroke:#a1a1a1;stroke-linecap:round;stroke-miterlimit:10;}.cls-1{stroke-width:6px;}.cls-2{fill:#a1a1a1;}.cls-3{stroke-width:8px;}</style></defs><title>Eraser</title><path class="cls-1" d="M44.15,102.28a7.62,7.62,0,0,0,0,10.8L75.07,144a7.64,7.64,0,0,0,10.8,0L108,121.82,66.32,80.1Z"/><path class="cls-2" d="M95.2,40,55.29,79.91a4.28,4.28,0,0,0,0,6l2.28,2.28L99.29,130l2.28,2.28a4.27,4.27,0,0,0,6,0l39.92-39.92a4.28,4.28,0,0,0,0-6L101.25,40A4.28,4.28,0,0,0,95.2,40Z"/><line class="cls-3" x1="79.78" y1="146.24" x2="144" y2="146.24"/></svg>