<svg xmlns="http://www.w3.org/2000/svg" viewBox="0 0 200 200"><defs><style>.cls-1{fill:#a1a1a1;}</style></defs><title>MagicWand</title><g id="MagicWand"><path class="cls-1" d="M132.92,104.73l-6.47,32.17L120,104.73a2.66,2.66,0,0,0-3-.43L65.41,155.87a6,6,0,0,1-8.49-8.49L108.7,95.6a2.38,2.38,0,0,0-.53-2.68L76,86.45,108.17,80A1.23,1.23,0,0,0,109,78.1L90.78,50.78,118.1,69a1.23,1.23,0,0,0,1.88-.78L126.45,36l6.47,32.16a1.23,1.23,0,0,0,1.88.78l27.32-18.17L144,78.1a1.23,1.23,0,0,0,.78,1.88l32.16,6.47-32.16,6.47A1.23,1.23,0,0,0,144,94.8l18.17,27.32L134.8,104A1.23,1.23,0,0,0,132.92,104.73Z"/></g></svg>