<svg xmlns="http://www.w3.org/2000/svg" viewBox="0 0 200 200"><defs><style>.cls-1,.cls-2{fill:none;stroke:#a1a1a1;stroke-width:6px;}.cls-1{stroke-linecap:square;}.cls-1,.cls-2,.cls-3{stroke-linejoin:round;}.cls-2,.cls-3{stroke-linecap:round;}.cls-3{fill:#a1a1a1;stroke:#3f3f3f;stroke-width:4px;}</style></defs><title>Object</title><g id="Object"><polygon class="cls-1" points="100 160 53.32 134 53.32 76 100 98 100 160"/><polygon class="cls-1" points="146.68 134 100 160 100 98 146.68 76 146.68 134"/><polygon class="cls-1" points="146.68 76 100 98 53.32 76 100 54 146.68 76"/><polygon class="cls-1" points="146.77 134.65 100 160 53.42 134.65 100.1 112.64 146.77 134.65"/><path class="cls-2" d="M100,54v0Z"/><path class="cls-3" d="M157.07,126.82l-38.66-18.36a1.31,1.31,0,0,0-1.88,1.29L120,152.47a1.32,1.32,0,0,0,2.26.81l8-8.4a1.32,1.32,0,0,1,2,.16l7.9,11.45a3.86,3.86,0,0,0,5.36,1l6.93-4.78a3.87,3.87,0,0,0,1-5.36l-8.07-11.69a1.31,1.31,0,0,1,.59-2l11-4.47A1.31,1.31,0,0,0,157.07,126.82Z"/></g></svg>