<svg xmlns="http://www.w3.org/2000/svg" viewBox="0 0 200 200"><defs><style>.cls-1{fill:#a1a1a1;}.cls-2{fill:none;stroke:#a1a1a1;stroke-linecap:round;stroke-miterlimit:10;stroke-width:8px;stroke-dasharray:20 16;}</style></defs><title>Picker</title><g id="Rotate"><path class="cls-1" d="M173.71,98.08l-20.83,25a1.27,1.27,0,0,1-1.95,0l-20.83-25a1.27,1.27,0,0,1,1-2.08h12.35a1.17,1.17,0,0,0,1.15-1.36C140.63,73,123,56.63,100.14,56.5a5.73,5.73,0,0,1-5.81-5.32,5.54,5.54,0,0,1,5.54-5.77c29.21,0,55,21.56,59.6,49.61a1.15,1.15,0,0,0,1.13,1h12.13A1.27,1.27,0,0,1,173.71,98.08Z"/><path class="cls-2" d="M142.28,133.76a52.88,52.88,0,1,1-58.66-82"/></g></svg>