<svg xmlns="http://www.w3.org/2000/svg" xmlns:xlink="http://www.w3.org/1999/xlink" viewBox="0 0 200 200"><defs><style>.cls-1{fill:url(#linear-gradient);}.cls-2{fill:url(#linear-gradient-2);}.cls-3{fill:gray;}</style><linearGradient id="linear-gradient" x1="102.4" y1="33.14" x2="102.4" y2="167.01" gradientUnits="userSpaceOnUse"><stop offset="0" stop-color="#a1a1a1"/><stop offset="0.05" stop-color="#b8b8b8"/><stop offset="0.16" stop-color="#eaeaea"/><stop offset="0.22" stop-color="#fdfdfd"/><stop offset="0.71" stop-color="#fefefe"/><stop offset="0.84" stop-color="#fcfcfc"/><stop offset="0.89" stop-color="#f5f5f5"/><stop offset="0.93" stop-color="#eaeaea"/><stop offset="0.95" stop-color="#d9d9d9"/><stop offset="0.98" stop-color="#c3c3c3"/><stop offset="1" stop-color="#a8a8a8"/><stop offset="1" stop-color="#a1a1a1"/></linearGradient><linearGradient id="linear-gradient-2" x1="135.64" y1="8.88" x2="135.64" y2="83.4" gradientUnits="userSpaceOnUse"><stop offset="0" stop-color="#a1a1a1"/><stop offset="0.11" stop-color="#b9b9b9"/><stop offset="0.37" stop-color="#ebebeb"/><stop offset="0.49" stop-color="#fefefe"/><stop offset="0.58" stop-color="#f9f9f9"/><stop offset="0.7" stop-color="#e9e9e9"/><stop offset="0.83" stop-color="#d0d0d0"/><stop offset="0.96" stop-color="#acacac"/><stop offset="1" stop-color="#a1a1a1"/></linearGradient></defs><title>Clip Studio File</title><g id="Clip"><path class="cls-1" d="M158.27,71v96.82a6.43,6.43,0,0,1-6.4,6.43H53a6.43,6.43,0,0,1-6.43-6.43V32.17A6.43,6.43,0,0,1,53,25.74H113Z"/><path class="cls-2" d="M158.27,71H120.05A7.05,7.05,0,0,1,113,64V25.74Z"/><path class="cls-3" d="M110,148.42a8.61,8.61,0,0,1-10-3.27L89.17,128.1l26.28-10.32c12.32-4.84,16.64-12.54,11.54-20.59s-15.49-10-27.81-5.12L79.93,99.63c-5.59,2.19-4.29,4.24-3.34,5.74s2.24,3.54,7.83,1.34l17.78-7a8.59,8.59,0,0,1,10,3.26,5.43,5.43,0,0,1-2.73,8.27l-17.78,7c-11.15,4.38-22.1,1.29-27.89-7.87s-2.34-17.91,8.8-22.29l19.25-7.56c22.41-8.81,40.19-.5,47.87,11.65s5.41,28.33-17,37.13l-13.52,5.32,3.49,5.51A5.45,5.45,0,0,1,110,148.42Z"/></g></svg>