<svg xmlns="http://www.w3.org/2000/svg" viewBox="0 0 200 200"><defs><style>.cls-1{fill:none;}.cls-1,.cls-2,.cls-3{stroke:#a1a1a1;stroke-linecap:round;stroke-miterlimit:10;}.cls-1,.cls-2{stroke-width:8px;}.cls-2,.cls-3{fill:#a1a1a1;}.cls-3{stroke-width:2px;}</style></defs><title>Spray</title><g id="Spray"><rect class="cls-1" x="72.5" y="131.6" width="76.5" height="25.75"/><path class="cls-2" d="M149,127H72.5c0-18.62,17.14-27,38.25-27S149,108.37,149,127Z"/><rect class="cls-2" x="106" y="73" width="9" height="15" rx="2.65"/><rect class="cls-3" x="108" y="77" width="5" height="17" rx="1.24"/><rect class="cls-3" x="87.79" y="76.27" width="7.21" height="7.21" rx="1.26"/><rect class="cls-3" x="63.49" y="76.27" width="7.21" height="7.21" rx="1.26"/><rect class="cls-3" x="63.49" y="59.52" width="7.21" height="7.21" rx="1.26"/><rect class="cls-3" x="75.64" y="84.97" width="7.21" height="7.21" rx="1.26"/><rect class="cls-3" x="75.64" y="68.22" width="7.21" height="7.21" rx="1.26"/><rect class="cls-3" x="63.49" y="93.01" width="7.21" height="7.21" rx="1.26"/><rect class="cls-3" x="51.29" y="67.66" width="7.21" height="7.21" rx="1.26"/><rect class="cls-3" x="51.29" y="52.57" width="7.21" height="7.21" rx="1.26"/><rect class="cls-3" x="51.29" y="84.86" width="7.21" height="7.21" rx="1.26"/><rect class="cls-3" x="51.29" y="102.11" width="7.21" height="7.21" rx="1.26"/></g></svg>